<?xml version="1.0" encoding="UTF-8" standalone="no"?>
<!-- Created with Inkscape (http://www.inkscape.org/) -->

<svg
   xmlns:dc="http://purl.org/dc/elements/1.1/"
   xmlns:cc="http://creativecommons.org/ns#"
   xmlns:rdf="http://www.w3.org/1999/02/22-rdf-syntax-ns#"
   xmlns:svg="http://www.w3.org/2000/svg"
   xmlns="http://www.w3.org/2000/svg"
   xmlns:sodipodi="http://sodipodi.sourceforge.net/DTD/sodipodi-0.dtd"
   xmlns:inkscape="http://www.inkscape.org/namespaces/inkscape"
   width="67.426651mm"
   height="54.637787mm"
   viewBox="0 0 67.426651 54.637787"
   version="1.1"
   id="svg4836"
   inkscape:version="0.92.1 r15371"
   sodipodi:docname="plaq.svg"
   inkscape:export-filename="C:\Users\Matthew\git\lgt\plaq.png"
   inkscape:export-xdpi="96"
   inkscape:export-ydpi="96">
  <sodipodi:namedview
     id="base"
     pagecolor="#ffffff"
     bordercolor="#666666"
     borderopacity="1.0"
     inkscape:pageopacity="0.0"
     inkscape:pageshadow="2"
     inkscape:zoom="0.98994949"
     inkscape:cx="42.985069"
     inkscape:cy="-101.62146"
     inkscape:document-units="mm"
     inkscape:current-layer="layer1"
     showgrid="false"
     inkscape:window-width="1920"
     inkscape:window-height="1017"
     inkscape:window-x="-8"
     inkscape:window-y="-8"
     inkscape:window-maximized="1"
     inkscape:snap-global="false"
     fit-margin-top="0"
     fit-margin-left="0"
     fit-margin-right="0"
     fit-margin-bottom="0" />
  <defs
     id="defs4830" />
  <metadata
     id="metadata4833">
    <rdf:RDF>
      <cc:Work
         rdf:about="">
        <dc:format>image/svg+xml</dc:format>
        <dc:type
           rdf:resource="http://purl.org/dc/dcmitype/StillImage" />
        <dc:title></dc:title>
      </cc:Work>
    </rdf:RDF>
  </metadata>
  <g
     id="layer1"
     inkscape:groupmode="layer"
     inkscape:label="Layer 1"
     transform="translate(-29.495917,-122.83654)">
    <g
       id="g5102"
       transform="matrix(0,-0.68340913,-0.68340913,0,142.53956,199.77911)">
      <path
         style="fill:#000000;fill-opacity:1;stroke:#000000;stroke-width:0.39331377;stroke-linecap:butt;stroke-linejoin:miter;stroke-miterlimit:4;stroke-dasharray:none;stroke-opacity:1"
         d="M 49.269006,166.27839 H 59.572114"
         id="path5072"
         inkscape:connector-curvature="0"
         transform="matrix(0,-1.4632523,-1.4632523,0,298.70726,227.85133)" />
      <path
         style="fill:#000000;fill-opacity:1;stroke:#000000;stroke-width:0.41078088;stroke-linecap:butt;stroke-linejoin:miter;stroke-miterlimit:4;stroke-dasharray:none;stroke-opacity:1"
         d="M 49.316234,166.32564 V 155.08709"
         id="path5074"
         inkscape:connector-curvature="0"
         transform="matrix(0,-1.4632523,-1.4632523,0,298.70726,227.85133)" />
      <g
         id="g5084">
        <path
           sodipodi:nodetypes="cc"
           inkscape:connector-curvature="0"
           id="path5076"
           d="m 68.493504,153.44476 3.126759,2.24354"
           style="fill:none;stroke:#000000;stroke-width:0.565;stroke-linecap:butt;stroke-linejoin:miter;stroke-miterlimit:4;stroke-dasharray:none;stroke-opacity:1" />
        <path
           style="fill:none;stroke:#000000;stroke-width:0.565;stroke-linecap:butt;stroke-linejoin:miter;stroke-miterlimit:4;stroke-dasharray:none;stroke-opacity:1"
           d="m 68.493504,157.93184 3.126759,-2.24354"
           id="path5078"
           inkscape:connector-curvature="0"
           sodipodi:nodetypes="cc" />
      </g>
      <g
         transform="rotate(-90,56.084916,156.3732)"
         id="g5090">
        <path
           style="fill:none;stroke:#000000;stroke-width:0.565;stroke-linecap:butt;stroke-linejoin:miter;stroke-miterlimit:4;stroke-dasharray:none;stroke-opacity:1"
           d="m 68.493504,153.44476 3.126759,2.24354"
           id="path5086"
           inkscape:connector-curvature="0"
           sodipodi:nodetypes="cc" />
        <path
           sodipodi:nodetypes="cc"
           inkscape:connector-curvature="0"
           id="path5088"
           d="m 68.493504,157.93184 3.126759,-2.24354"
           style="fill:none;stroke:#000000;stroke-width:0.565;stroke-linecap:butt;stroke-linejoin:miter;stroke-miterlimit:4;stroke-dasharray:none;stroke-opacity:1" />
      </g>
    </g>
    <path
       style="fill:none;stroke:#0700e5;stroke-width:0.34200001;stroke-linecap:butt;stroke-linejoin:miter;stroke-miterlimit:4;stroke-dasharray:none;stroke-opacity:1"
       d="m 80.983302,134.60575 7.441048,-4.9533"
       id="path4785"
       inkscape:connector-curvature="0" />
    <path
       inkscape:connector-curvature="0"
       id="path5161"
       d="m 81.208006,134.43391 v -7.78889"
       style="fill:none;stroke:#1aff27;stroke-width:0.34200001;stroke-linecap:butt;stroke-linejoin:miter;stroke-miterlimit:4;stroke-dasharray:none;stroke-opacity:1" />
    <path
       inkscape:connector-curvature="0"
       id="path5151"
       d="m 80.971758,134.48114 h 8.572017"
       style="fill:none;stroke:#ff1515;stroke-width:0.34200001;stroke-linecap:butt;stroke-linejoin:miter;stroke-miterlimit:4;stroke-dasharray:none;stroke-opacity:1" />
    <path
       inkscape:connector-curvature="0"
       id="path6211"
       d="m 80.983302,155.77243 7.441048,-4.9533"
       style="fill:none;stroke:#0700e5;stroke-width:0.34200001;stroke-linecap:butt;stroke-linejoin:miter;stroke-miterlimit:4;stroke-dasharray:none;stroke-opacity:1" />
    <path
       style="fill:none;stroke:#1aff27;stroke-width:0.34200001;stroke-linecap:butt;stroke-linejoin:miter;stroke-miterlimit:4;stroke-dasharray:none;stroke-opacity:1"
       d="m 81.208006,163.00897 v -7.78889"
       id="path6213"
       inkscape:connector-curvature="0" />
    <path
       style="fill:none;stroke:#ff1515;stroke-width:0.34200001;stroke-linecap:butt;stroke-linejoin:miter;stroke-miterlimit:4;stroke-dasharray:none;stroke-opacity:1"
       d="m 80.971758,155.64782 h 8.572017"
       id="path6215"
       inkscape:connector-curvature="0" />
    <path
       style="fill:none;stroke:#0700e5;stroke-width:0.34200001;stroke-linecap:butt;stroke-linejoin:miter;stroke-miterlimit:4;stroke-dasharray:none;stroke-opacity:1"
       d="m 59.816634,155.77243 7.441048,-4.9533"
       id="path6217"
       inkscape:connector-curvature="0" />
    <path
       inkscape:connector-curvature="0"
       id="path6219"
       d="m 60.041338,163.00897 v -7.78889"
       style="fill:none;stroke:#1aff27;stroke-width:0.34200001;stroke-linecap:butt;stroke-linejoin:miter;stroke-miterlimit:4;stroke-dasharray:none;stroke-opacity:1" />
    <path
       inkscape:connector-curvature="0"
       id="path6221"
       d="m 51.338421,155.64782 h 8.572017"
       style="fill:none;stroke:#ff1515;stroke-width:0.34200001;stroke-linecap:butt;stroke-linejoin:miter;stroke-miterlimit:4;stroke-dasharray:none;stroke-opacity:1" />
    <path
       inkscape:connector-curvature="0"
       id="path6223"
       d="m 59.816634,134.60575 7.441048,-4.9533"
       style="fill:none;stroke:#0700e5;stroke-width:0.34200001;stroke-linecap:butt;stroke-linejoin:miter;stroke-miterlimit:4;stroke-dasharray:none;stroke-opacity:1" />
    <path
       style="fill:none;stroke:#1aff27;stroke-width:0.34200001;stroke-linecap:butt;stroke-linejoin:miter;stroke-miterlimit:4;stroke-dasharray:none;stroke-opacity:1"
       d="m 60.041338,134.43391 v -7.78889"
       id="path6225"
       inkscape:connector-curvature="0" />
    <path
       style="fill:none;stroke:#ff1515;stroke-width:0.34200001;stroke-linecap:butt;stroke-linejoin:miter;stroke-miterlimit:4;stroke-dasharray:none;stroke-opacity:1"
       d="m 51.338421,134.48114 h 8.572017"
       id="path6227"
       inkscape:connector-curvature="0" />
    <g
       id="g6195">
      <path
         style="fill:#000000;fill-opacity:1;stroke:#000000;stroke-width:0.56500006;stroke-linecap:butt;stroke-linejoin:miter;stroke-miterlimit:4;stroke-dasharray:none;stroke-opacity:1"
         d="M 59.85234,155.69505 H 81.113499"
         id="path4577"
         inkscape:connector-curvature="0" />
      <path
         inkscape:connector-curvature="0"
         id="path4583"
         d="M 59.85234,134.52837 H 81.113499"
         style="fill:#000000;fill-opacity:1;stroke:#000000;stroke-width:0.56500006;stroke-linecap:butt;stroke-linejoin:miter;stroke-miterlimit:4;stroke-dasharray:none;stroke-opacity:1" />
      <path
         inkscape:connector-curvature="0"
         id="path4723"
         d="M 81.066248,155.7423 V 134.48114"
         style="fill:#000000;fill-opacity:1;stroke:#000000;stroke-width:0.56500006;stroke-linecap:butt;stroke-linejoin:miter;stroke-miterlimit:4;stroke-dasharray:none;stroke-opacity:1" />
      <path
         style="fill:#000000;fill-opacity:1;stroke:#000000;stroke-width:0.56500006;stroke-linecap:butt;stroke-linejoin:miter;stroke-miterlimit:4;stroke-dasharray:none;stroke-opacity:1"
         d="M 59.899568,155.7423 V 134.48114"
         id="path4729"
         inkscape:connector-curvature="0" />
      <circle
         id="circle3698"
         cx="60.098225"
         cy="155.44789"
         r="2.1381562"
         style="fill:#000000;fill-opacity:1;stroke-width:0.26458332" />
      <circle
         style="fill:#000000;fill-opacity:1;stroke-width:0.26458332"
         r="2.1381562"
         cy="155.44789"
         cx="81.264893"
         id="circle3700" />
      <circle
         style="fill:#000000;fill-opacity:1;stroke-width:0.26458332"
         r="2.1381562"
         cy="134.28123"
         cx="60.098225"
         id="circle3706" />
      <circle
         id="circle3708"
         cx="81.264893"
         cy="134.28123"
         r="2.1381562"
         style="fill:#000000;fill-opacity:1;stroke-width:0.26458332" />
      <g
         id="g5480">
        <path
           sodipodi:nodetypes="cc"
           inkscape:connector-curvature="0"
           id="path5472"
           d="m 69.226784,153.52273 3.126759,2.24354"
           style="fill:none;stroke:#000000;stroke-width:0.565;stroke-linecap:butt;stroke-linejoin:miter;stroke-miterlimit:4;stroke-dasharray:none;stroke-opacity:1" />
        <path
           style="fill:none;stroke:#000000;stroke-width:0.565;stroke-linecap:butt;stroke-linejoin:miter;stroke-miterlimit:4;stroke-dasharray:none;stroke-opacity:1"
           d="m 69.226784,157.88295 3.126759,-2.24354"
           id="path5476"
           inkscape:connector-curvature="0"
           sodipodi:nodetypes="cc" />
      </g>
      <g
         id="g5486"
         transform="matrix(-1,0,0,1,141.58033,-21.166667)">
        <path
           style="fill:none;stroke:#000000;stroke-width:0.565;stroke-linecap:butt;stroke-linejoin:miter;stroke-miterlimit:4;stroke-dasharray:none;stroke-opacity:1"
           d="m 69.226784,153.52273 3.126759,2.24354"
           id="path5482"
           inkscape:connector-curvature="0"
           sodipodi:nodetypes="cc" />
        <path
           sodipodi:nodetypes="cc"
           inkscape:connector-curvature="0"
           id="path5484"
           d="m 69.226784,157.88295 3.126759,-2.24354"
           style="fill:none;stroke:#000000;stroke-width:0.565;stroke-linecap:butt;stroke-linejoin:miter;stroke-miterlimit:4;stroke-dasharray:none;stroke-opacity:1" />
      </g>
      <g
         transform="rotate(90,70.896483,144.69666)"
         id="g5492">
        <path
           sodipodi:nodetypes="cc"
           inkscape:connector-curvature="0"
           id="path5488"
           d="m 69.226784,153.52273 3.126759,2.24354"
           style="fill:none;stroke:#000000;stroke-width:0.565;stroke-linecap:butt;stroke-linejoin:miter;stroke-miterlimit:4;stroke-dasharray:none;stroke-opacity:1" />
        <path
           style="fill:none;stroke:#000000;stroke-width:0.565;stroke-linecap:butt;stroke-linejoin:miter;stroke-miterlimit:4;stroke-dasharray:none;stroke-opacity:1"
           d="m 69.226784,157.88295 3.126759,-2.24354"
           id="path5490"
           inkscape:connector-curvature="0"
           sodipodi:nodetypes="cc" />
      </g>
      <g
         id="g5498"
         transform="matrix(0,-1,-1,0,236.7598,215.3805)">
        <path
           style="fill:none;stroke:#000000;stroke-width:0.565;stroke-linecap:butt;stroke-linejoin:miter;stroke-miterlimit:4;stroke-dasharray:none;stroke-opacity:1"
           d="m 69.226784,153.52273 3.126759,2.24354"
           id="path5494"
           inkscape:connector-curvature="0"
           sodipodi:nodetypes="cc" />
        <path
           sodipodi:nodetypes="cc"
           inkscape:connector-curvature="0"
           id="path5496"
           d="m 69.226784,157.88295 3.126759,-2.24354"
           style="fill:none;stroke:#000000;stroke-width:0.565;stroke-linecap:butt;stroke-linejoin:miter;stroke-miterlimit:4;stroke-dasharray:none;stroke-opacity:1" />
      </g>
    </g>
    <g
       id="g6278"
       transform="matrix(0.21339672,0,0,0.21339672,28.217911,142.72462)">
      <g
         word-spacing="normal"
         letter-spacing="normal"
         font-size-adjust="none"
         font-stretch="normal"
         font-weight="normal"
         font-variant="normal"
         font-style="normal"
         stroke-miterlimit="10.433"
         xml:space="preserve"
         transform="matrix(0.3,0,0,-0.3,-52.5,222.75)"
         id="content"
         style="font-style:normal;font-variant:normal;font-weight:normal;font-stretch:normal;letter-spacing:normal;word-spacing:normal;text-anchor:start;fill:none;fill-opacity:1;fill-rule:evenodd;stroke:#000000;stroke-linecap:butt;stroke-linejoin:miter;stroke-miterlimit:10.43299961;stroke-dasharray:none;stroke-dashoffset:0;stroke-opacity:1"><path
           id="path6275"
           d="m 472.16,421.25 0.03,0.13 0.04,0.15 0.04,0.16 0.04,0.18 0.06,0.19 0.06,0.21 0.06,0.22 0.07,0.22 0.08,0.23 0.09,0.24 0.1,0.25 0.1,0.24 0.11,0.25 0.12,0.25 0.13,0.25 0.14,0.25 0.15,0.24 0.15,0.24 0.17,0.23 0.18,0.22 0.18,0.22 0.2,0.2 0.21,0.19 0.22,0.18 0.23,0.16 0.25,0.14 0.12,0.07 0.13,0.06 0.14,0.05 0.13,0.05 0.14,0.05 0.14,0.04 0.15,0.03 0.15,0.03 0.15,0.02 0.16,0.02 0.16,0.01 h 0.16 c 0.25,0 1.44,0 2.48,-0.64 -1.39,-0.25 -2.39,-1.5 -2.39,-2.69 0,-0.79 0.55,-1.75 1.89,-1.75 1.1,0 2.69,0.89 2.69,2.89 0,2.6 -2.94,3.28 -4.63,3.28 -2.89,0 -4.64,-2.64 -5.23,-3.78 -1.25,3.28 -3.94,3.78 -5.37,3.78 -5.19,0 -8.04,-6.42 -8.04,-7.67 0,-0.5 0.5,-0.5 0.61,-0.5 0.39,0 0.55,0.11 0.64,0.55 1.69,5.28 4.99,6.53 6.68,6.53 0.95,0 2.68,-0.44 2.68,-3.33 0,-1.54 -0.84,-4.89 -2.68,-11.86 -0.8,-3.09 -2.54,-5.18 -4.74,-5.18 -0.3,0 -1.44,0 -2.48,0.65 1.25,0.24 2.34,1.28 2.34,2.69 0,1.34 -1.09,1.73 -1.84,1.73 -1.5,0 -2.75,-1.29 -2.75,-2.89 0,-2.28 2.5,-3.28 4.68,-3.28 3.3,0 5.08,3.49 5.24,3.78 0.59,-1.84 2.39,-3.78 5.37,-3.78 5.14,0 7.99,6.42 7.99,7.67 0,0.5 -0.45,0.5 -0.61,0.5 -0.44,0 -0.55,-0.2 -0.64,-0.54 -1.64,-5.33 -5.03,-6.53 -6.63,-6.53 -1.95,0 -2.75,1.59 -2.75,3.29 0,1.1 0.3,2.19 0.86,4.38 z"
           inkscape:connector-curvature="0"
           style="fill:#000000;stroke-width:0" /></g>    </g>
    <g
       transform="matrix(0.21775448,0,0,0.21775448,14.38398,129.36342)"
       id="g6395">
      <g
         style="font-style:normal;font-variant:normal;font-weight:normal;font-stretch:normal;letter-spacing:normal;word-spacing:normal;text-anchor:start;fill:none;fill-opacity:1;fill-rule:evenodd;stroke:#000000;stroke-linecap:butt;stroke-linejoin:miter;stroke-miterlimit:10.43299961;stroke-dasharray:none;stroke-dashoffset:0;stroke-opacity:1"
         id="g6393"
         transform="matrix(0.3,0,0,-0.3,-52.5,222.75)"
         xml:space="preserve"
         stroke-miterlimit="10.433"
         font-style="normal"
         font-variant="normal"
         font-weight="normal"
         font-stretch="normal"
         font-size-adjust="none"
         letter-spacing="normal"
         word-spacing="normal"><path
           style="fill:#000000;stroke-width:0"
           inkscape:connector-curvature="0"
           d="m 479.74,425.18 0.01,0.04 0.01,0.03 0.01,0.06 0.02,0.05 0.01,0.06 0.01,0.05 0.02,0.04 0.01,0.05 0.01,0.04 0.01,0.04 v 0.04 l 0.01,0.04 0.01,0.04 0.01,0.03 v 0.03 l 0.01,0.03 v 0.03 l 0.01,0.03 v 0.03 l 0.01,0.05 v 0.06 0.05 0.05 l 0.01,0.05 v 0.03 0.03 0.03 0.03 c 0,0.91 -0.69,1.35 -1.44,1.35 -0.5,0 -1.3,-0.3 -1.75,-1.05 -0.1,-0.25 -0.5,-1.78 -0.69,-2.69 -0.36,-1.29 -0.7,-2.64 -1,-3.98 l -2.25,-8.97 c -0.19,-0.75 -2.33,-4.23 -5.62,-4.23 -2.54,0 -3.1,2.18 -3.1,4.03 0,2.29 0.86,5.39 2.55,9.76 0.8,2.05 1,2.6 1,3.6 0,2.23 -1.59,4.07 -4.09,4.07 -4.74,0 -6.58,-7.21 -6.58,-7.67 0,-0.5 0.5,-0.5 0.61,-0.5 0.5,0 0.54,0.11 0.79,0.91 1.35,4.69 3.33,6.17 5.03,6.17 0.4,0 1.25,0 1.25,-1.59 0,-1.25 -0.5,-2.53 -0.85,-3.49 -1.99,-5.28 -2.9,-8.12 -2.9,-10.47 0,-4.42 3.15,-5.92 6.08,-5.92 1.96,0 3.64,0.85 5.03,2.24 -0.64,-2.58 -1.23,-5.03 -3.23,-7.68 -1.3,-1.68 -3.19,-3.14 -5.48,-3.14 -0.69,0 -2.94,0.16 -3.79,2.1 0.8,0 1.46,0 2.14,0.61 0.5,0.43 1,1.09 1,2.03 0,1.55 -1.34,1.75 -1.84,1.75 -1.14,0 -2.8,-0.8 -2.8,-3.24 0,-2.5 2.21,-4.34 5.29,-4.34 5.14,0 10.26,4.55 11.67,10.17 z"
           id="path6391" /></g>    </g>
    <g
       id="g6487"
       transform="translate(0.09449405,6.6145833)">
      <g
         id="g6574"
         transform="matrix(0.30861543,0,0,0.30861543,42.589698,124.39114)">
        <g
           word-spacing="normal"
           letter-spacing="normal"
           font-size-adjust="none"
           font-stretch="normal"
           font-weight="normal"
           font-variant="normal"
           font-style="normal"
           stroke-miterlimit="10.433"
           xml:space="preserve"
           transform="matrix(0.3,0,0,-0.3,-52.5,222.75)"
           id="g6572"
           style="font-style:normal;font-variant:normal;font-weight:normal;font-stretch:normal;letter-spacing:normal;word-spacing:normal;text-anchor:start;fill:none;fill-opacity:1;fill-rule:evenodd;stroke:#000000;stroke-linecap:butt;stroke-linejoin:miter;stroke-miterlimit:10.43299961;stroke-dasharray:none;stroke-dashoffset:0;stroke-opacity:1"><path
             id="path6568"
             d="m 487.16,435 0.1,0.37 0.05,0.19 0.06,0.18 0.06,0.17 0.07,0.17 0.07,0.17 0.08,0.16 0.08,0.16 0.1,0.16 0.09,0.15 0.11,0.14 0.11,0.14 0.13,0.14 0.13,0.12 0.14,0.13 0.15,0.12 0.17,0.11 0.17,0.11 0.19,0.1 0.19,0.09 0.21,0.09 0.23,0.08 0.23,0.08 0.26,0.07 0.26,0.06 0.28,0.06 0.3,0.04 0.31,0.05 0.33,0.03 0.35,0.03 0.18,0.01 h 0.19 c 0.25,0 0.84,0.05 0.84,1 0,0.05 0,0.55 -0.64,0.55 -1.64,0 -3.39,-0.16 -5.08,-0.16 -1.7,0 -3.55,0.16 -5.19,0.16 -0.29,0 -0.89,0 -0.89,-1 0,-0.55 0.5,-0.55 0.89,-0.55 2.85,-0.04 3.39,-1.09 3.39,-2.18 0,-0.16 -0.11,-0.91 -0.15,-1.05 l -4.49,-17.8 c -1.68,-6.67 -7.42,-11 -12.4,-11 -3.38,0 -6.08,2.19 -6.08,6.47 0,0.11 0,1.7 0.55,3.89 l 4.84,19.38 c 0.44,1.79 0.55,2.29 4.19,2.29 1.28,0 1.68,0 1.68,1 0,0.55 -0.54,0.55 -0.7,0.55 -1.39,0 -4.98,-0.16 -6.37,-0.16 -1.44,0 -4.99,0.16 -6.43,0.16 -0.4,0 -0.95,0 -0.95,-1 0,-0.55 0.45,-0.55 1.41,-0.55 0.09,0 1.04,0 1.89,-0.09 0.89,-0.11 1.34,-0.16 1.34,-0.8 0,-0.31 -0.55,-2.39 -0.84,-3.54 l -1.11,-4.38 c -0.44,-1.95 -2.83,-11.36 -3.03,-12.31 -0.35,-1.39 -0.35,-2.14 -0.35,-2.89 0,-6.08 4.53,-9.56 9.77,-9.56 6.26,0 12.45,5.62 14.09,12.2 z"
             inkscape:connector-curvature="0"
             style="fill:#000000;stroke-width:0" /><path
             id="path6570"
             d="m 499.31,421.9 v 0.01 0 0 l 0.01,0.01 v 0 0.01 0.01 0 l 0.01,0.01 v 0.01 0.01 l 0.01,0.02 v 0.02 l 0.01,0.02 0.01,0.02 v 0.02 l 0.01,0.02 v 0.03 l 0.01,0.02 0.01,0.05 0.01,0.04 0.01,0.03 v 0.02 l 0.01,0.02 v 0.02 l 0.01,0.02 v 0.02 l 0.01,0.02 v 0.01 0.01 0.01 0 0.01 h 0.01 v 0.01 0 0.01 0 0 0.01 0 c 0,0.19 -0.14,0.5 -0.56,0.5 -0.69,0 -3.6,-0.28 -4.46,-0.36 -0.25,-0.03 -0.73,-0.06 -0.73,-0.8 0,-0.48 0.48,-0.48 0.87,-0.48 1.68,0 1.68,-0.25 1.68,-0.53 0,-0.24 -0.08,-0.46 -0.14,-0.77 l -4.33,-17.2 c -0.11,-0.36 -0.14,-0.74 -0.14,-1.08 0,-2.23 1.98,-3.31 3.65,-3.31 0.85,0 1.89,0.28 2.8,1.84 0.73,1.28 1.22,3.35 1.22,3.49 0,0.45 -0.45,0.45 -0.56,0.45 -0.49,0 -0.55,-0.2 -0.69,-0.84 -0.45,-1.74 -1.13,-3.97 -2.63,-3.97 -0.93,0 -1.17,0.87 -1.17,1.7 0,0.39 0.1,1.05 0.2,1.44 z"
             inkscape:connector-curvature="0"
             style="fill:#000000;stroke-width:0" /></g>      </g>
      <path
         inkscape:connector-curvature="0"
         id="path6659"
         d="m 35.997024,155.29528 8.578815,-5.70595"
         style="fill:#000000;fill-opacity:1;stroke:#000000;stroke-width:0.39331377;stroke-linecap:butt;stroke-linejoin:miter;stroke-miterlimit:4;stroke-dasharray:none;stroke-opacity:1"
         inkscape:transform-center-x="-4.3247947"
         inkscape:transform-center-y="-2.876511" />
      <g
         id="g6665"
         transform="matrix(0.56903612,-0.37847845,-0.37847845,-0.56903612,62.657474,265.3472)"
         inkscape:transform-center-x="-7.2115021"
         inkscape:transform-center-y="-4.4871973">
        <path
           sodipodi:nodetypes="cc"
           inkscape:connector-curvature="0"
           id="path6661"
           d="m 68.493504,153.44476 3.126759,2.24354"
           style="fill:none;stroke:#000000;stroke-width:0.565;stroke-linecap:butt;stroke-linejoin:miter;stroke-miterlimit:4;stroke-dasharray:none;stroke-opacity:1" />
        <path
           style="fill:none;stroke:#000000;stroke-width:0.565;stroke-linecap:butt;stroke-linejoin:miter;stroke-miterlimit:4;stroke-dasharray:none;stroke-opacity:1"
           d="m 68.493504,157.93184 3.126759,-2.24354"
           id="path6663"
           inkscape:connector-curvature="0"
           sodipodi:nodetypes="cc" />
      </g>
    </g>
    <g
       id="g6909"
       transform="matrix(0.23340988,0,0,0.23340988,23.682642,132.00777)">
      <g
         word-spacing="normal"
         letter-spacing="normal"
         font-size-adjust="none"
         font-stretch="normal"
         font-weight="normal"
         font-variant="normal"
         font-style="normal"
         stroke-miterlimit="10.433"
         xml:space="preserve"
         transform="matrix(0.3,0,0,-0.3,-52.5,222.75)"
         id="g6907"
         style="font-style:normal;font-variant:normal;font-weight:normal;font-stretch:normal;letter-spacing:normal;word-spacing:normal;text-anchor:start;fill:none;fill-opacity:1;fill-rule:evenodd;stroke:#000000;stroke-linecap:butt;stroke-linejoin:miter;stroke-miterlimit:10.43299961;stroke-dasharray:none;stroke-dashoffset:0;stroke-opacity:1"><path
           id="path6905"
           d="m 465.79,426.12 h 4.68 c 0.99,0 1.49,0 1.49,1 0,0.55 -0.5,0.55 -1.39,0.55 h -4.39 c 1.79,7.08 2.04,8.08 2.04,8.37 0,0.85 -0.59,1.35 -1.43,1.35 -0.16,0 -1.55,-0.05 -2,-1.8 l -1.94,-7.92 h -4.69 c -1,0 -1.5,0 -1.5,-0.94 0,-0.61 0.41,-0.61 1.41,-0.61 h 4.37 c -3.58,-14.14 -3.78,-14.98 -3.78,-15.89 0,-2.69 1.89,-4.58 4.58,-4.58 5.08,0 7.92,7.27 7.92,7.67 0,0.5 -0.39,0.5 -0.59,0.5 -0.46,0 -0.5,-0.15 -0.75,-0.7 -2.14,-5.17 -4.78,-6.37 -6.47,-6.37 -1.05,0 -1.55,0.65 -1.55,2.29 0,1.19 0.09,1.55 0.3,2.39 z"
           inkscape:connector-curvature="0"
           style="fill:#000000;stroke-width:0" /></g>    </g>
    <g
       id="g7112"
       transform="matrix(0.32108404,0,0,0.32108404,57.280825,114.06333)">
      <g
         id="g7110"
         transform="matrix(0.3,0,0,-0.3,-103.41337,221.42566)"
         xml:space="preserve"
         stroke-miterlimit="10.433"
         font-style="normal"
         font-variant="normal"
         font-weight="normal"
         font-stretch="normal"
         font-size-adjust="none"
         letter-spacing="normal"
         word-spacing="normal"
         style="font-style:normal;font-variant:normal;font-weight:normal;font-stretch:normal;letter-spacing:normal;word-spacing:normal;text-anchor:start;fill:none;fill-opacity:1;fill-rule:evenodd;stroke:#000000;stroke-linecap:butt;stroke-linejoin:miter;stroke-miterlimit:10.43299961;stroke-dasharray:none;stroke-dashoffset:0;stroke-opacity:1"><path
           d="m 487.16,435 0.1,0.37 0.05,0.19 0.06,0.18 0.06,0.17 0.07,0.17 0.07,0.17 0.08,0.16 0.08,0.16 0.1,0.16 0.09,0.15 0.11,0.14 0.11,0.14 0.13,0.14 0.13,0.12 0.14,0.13 0.15,0.12 0.17,0.11 0.17,0.11 0.19,0.1 0.19,0.09 0.21,0.09 0.23,0.08 0.23,0.08 0.26,0.07 0.26,0.06 0.28,0.06 0.3,0.04 0.31,0.05 0.33,0.03 0.35,0.03 0.18,0.01 h 0.19 c 0.25,0 0.84,0.05 0.84,1 0,0.05 0,0.55 -0.64,0.55 -1.64,0 -3.39,-0.16 -5.08,-0.16 -1.7,0 -3.55,0.16 -5.19,0.16 -0.29,0 -0.89,0 -0.89,-1 0,-0.55 0.5,-0.55 0.89,-0.55 2.85,-0.04 3.39,-1.09 3.39,-2.18 0,-0.16 -0.11,-0.91 -0.15,-1.05 l -4.49,-17.8 c -1.68,-6.67 -7.42,-11 -12.4,-11 -3.38,0 -6.08,2.19 -6.08,6.47 0,0.11 0,1.7 0.55,3.89 l 4.84,19.38 c 0.44,1.79 0.55,2.29 4.19,2.29 1.28,0 1.68,0 1.68,1 0,0.55 -0.54,0.55 -0.7,0.55 -1.39,0 -4.98,-0.16 -6.37,-0.16 -1.44,0 -4.99,0.16 -6.43,0.16 -0.4,0 -0.95,0 -0.95,-1 0,-0.55 0.45,-0.55 1.41,-0.55 0.09,0 1.04,0 1.89,-0.09 0.89,-0.11 1.34,-0.16 1.34,-0.8 0,-0.31 -0.55,-2.39 -0.84,-3.54 l -1.11,-4.38 c -0.44,-1.95 -2.83,-11.36 -3.03,-12.31 -0.35,-1.39 -0.35,-2.14 -0.35,-2.89 0,-6.08 4.53,-9.56 9.77,-9.56 6.26,0 12.45,5.62 14.09,12.2 z"
           id="path7106"
           inkscape:connector-curvature="0"
           style="fill:#000000;stroke-width:0" /><path
           d="m 492.09,394.51 -0.02,-0.09 -0.02,-0.08 -0.02,-0.09 -0.02,-0.07 -0.02,-0.08 -0.03,-0.07 -0.02,-0.07 -0.02,-0.06 -0.02,-0.06 -0.03,-0.05 -0.03,-0.06 -0.03,-0.05 -0.03,-0.04 -0.03,-0.05 -0.04,-0.04 -0.04,-0.03 -0.04,-0.04 -0.05,-0.03 -0.05,-0.03 -0.06,-0.02 -0.05,-0.03 -0.07,-0.02 -0.07,-0.01 -0.07,-0.02 -0.08,-0.02 h -0.05 l -0.04,-0.01 h -0.05 l -0.04,-0.01 h -0.05 -0.05 l -0.05,-0.01 h -0.06 -0.05 -0.06 l -0.06,-0.01 h -0.06 -0.06 -0.06 c -0.46,0 -0.94,0 -0.94,-0.73 0,-0.39 0.31,-0.53 0.48,-0.53 0.91,0 2.07,0.14 3,0.14 1.19,0 2.5,-0.14 3.66,-0.14 0.31,0 0.7,0.11 0.7,0.76 0,0.5 -0.5,0.5 -0.9,0.5 -0.78,0 -1.72,0 -1.72,0.41 0,0.19 0.25,1.09 0.39,1.61 0.42,1.84 0.9,3.73 1.28,5.18 0.42,-0.68 1.5,-2.04 3.59,-2.04 v 0.97 c -2.47,0 -3.09,2.68 -3.09,3.03 0,0.14 0.06,0.39 0.09,0.53 l 1.75,7 c 2.02,2.69 3.77,3.2 4.88,3.2 1.36,0 2.55,-1.01 2.55,-3.37 0,-1.44 -0.77,-4.99 -1.82,-7.02 -0.87,-1.7 -2.58,-3.37 -4.36,-3.37 v -0.97 c 4.25,0 8.96,4.7 8.96,9.89 0,4.08 -2.83,5.81 -5.22,5.81 -2.17,0 -4.02,-1.45 -4.96,-2.44 -0.59,1.99 -2.54,2.44 -3.59,2.44 -1.36,0 -2.19,-0.91 -2.75,-1.84 -0.7,-1.19 -1.25,-3.27 -1.25,-3.49 0,-0.45 0.49,-0.45 0.59,-0.45 0.49,0 0.52,0.11 0.77,1.05 0.52,2.03 1.19,3.76 2.55,3.76 0.9,0 1.14,-0.76 1.14,-1.7 0,-0.39 -0.06,-0.84 -0.11,-1.05 z"
           id="path7108"
           inkscape:connector-curvature="0"
           style="fill:#000000;stroke-width:0" /></g>    </g>
    <g
       transform="matrix(0.31613618,0,0,0.31613618,26.825591,139.84041)"
       id="g7536">
      <g
         style="font-style:normal;font-variant:normal;font-weight:normal;font-stretch:normal;letter-spacing:normal;word-spacing:normal;text-anchor:start;fill:none;fill-opacity:1;fill-rule:evenodd;stroke:#000000;stroke-linecap:butt;stroke-linejoin:miter;stroke-miterlimit:10.43299961;stroke-dasharray:none;stroke-dashoffset:0;stroke-opacity:1"
         id="g7534"
         transform="matrix(0.3,0,0,-0.3,-52.5,222.75)"
         xml:space="preserve"
         stroke-miterlimit="10.433"
         font-style="normal"
         font-variant="normal"
         font-weight="normal"
         font-stretch="normal"
         font-size-adjust="none"
         letter-spacing="normal"
         word-spacing="normal"><path
           style="fill:#000000;stroke-width:0"
           inkscape:connector-curvature="0"
           d="m 487.16,435 0.1,0.37 0.05,0.19 0.06,0.18 0.06,0.17 0.07,0.17 0.07,0.17 0.08,0.16 0.08,0.16 0.1,0.16 0.09,0.15 0.11,0.14 0.11,0.14 0.13,0.14 0.13,0.12 0.14,0.13 0.15,0.12 0.17,0.11 0.17,0.11 0.19,0.1 0.19,0.09 0.21,0.09 0.23,0.08 0.23,0.08 0.26,0.07 0.26,0.06 0.28,0.06 0.3,0.04 0.31,0.05 0.33,0.03 0.35,0.03 0.18,0.01 h 0.19 c 0.25,0 0.84,0.05 0.84,1 0,0.05 0,0.55 -0.64,0.55 -1.64,0 -3.39,-0.16 -5.08,-0.16 -1.7,0 -3.55,0.16 -5.19,0.16 -0.29,0 -0.89,0 -0.89,-1 0,-0.55 0.5,-0.55 0.89,-0.55 2.85,-0.04 3.39,-1.09 3.39,-2.18 0,-0.16 -0.11,-0.91 -0.15,-1.05 l -4.49,-17.8 c -1.68,-6.67 -7.42,-11 -12.4,-11 -3.38,0 -6.08,2.19 -6.08,6.47 0,0.11 0,1.7 0.55,3.89 l 4.84,19.38 c 0.44,1.79 0.55,2.29 4.19,2.29 1.28,0 1.68,0 1.68,1 0,0.55 -0.54,0.55 -0.7,0.55 -1.39,0 -4.98,-0.16 -6.37,-0.16 -1.44,0 -4.99,0.16 -6.43,0.16 -0.4,0 -0.95,0 -0.95,-1 0,-0.55 0.45,-0.55 1.41,-0.55 0.09,0 1.04,0 1.89,-0.09 0.89,-0.11 1.34,-0.16 1.34,-0.8 0,-0.31 -0.55,-2.39 -0.84,-3.54 l -1.11,-4.38 c -0.44,-1.95 -2.83,-11.36 -3.03,-12.31 -0.35,-1.39 -0.35,-2.14 -0.35,-2.89 0,-6.08 4.53,-9.56 9.77,-9.56 6.26,0 12.45,5.62 14.09,12.2 z"
           id="path7506" /><path
           style="fill:#000000;stroke-width:0"
           inkscape:connector-curvature="0"
           d="m 492.09,394.51 -0.02,-0.09 -0.02,-0.08 -0.02,-0.09 -0.02,-0.07 -0.02,-0.08 -0.03,-0.07 -0.02,-0.07 -0.02,-0.06 -0.02,-0.06 -0.03,-0.05 -0.03,-0.06 -0.03,-0.05 -0.03,-0.04 -0.03,-0.05 -0.04,-0.04 -0.04,-0.03 -0.04,-0.04 -0.05,-0.03 -0.05,-0.03 -0.06,-0.02 -0.05,-0.03 -0.07,-0.02 -0.07,-0.01 -0.07,-0.02 -0.08,-0.02 h -0.05 l -0.04,-0.01 h -0.05 l -0.04,-0.01 h -0.05 -0.05 l -0.05,-0.01 h -0.06 -0.05 -0.06 l -0.06,-0.01 h -0.06 -0.06 -0.06 c -0.46,0 -0.94,0 -0.94,-0.73 0,-0.39 0.31,-0.53 0.48,-0.53 0.91,0 2.07,0.14 3,0.14 1.19,0 2.5,-0.14 3.66,-0.14 0.31,0 0.7,0.11 0.7,0.76 0,0.5 -0.5,0.5 -0.9,0.5 -0.78,0 -1.72,0 -1.72,0.41 0,0.19 0.25,1.09 0.39,1.61 0.42,1.84 0.9,3.73 1.28,5.18 0.42,-0.68 1.5,-2.04 3.59,-2.04 v 0.97 c -2.47,0 -3.09,2.68 -3.09,3.03 0,0.14 0.06,0.39 0.09,0.53 l 1.75,7 c 2.02,2.69 3.77,3.2 4.88,3.2 1.36,0 2.55,-1.01 2.55,-3.37 0,-1.44 -0.77,-4.99 -1.82,-7.02 -0.87,-1.7 -2.58,-3.37 -4.36,-3.37 v -0.97 c 4.25,0 8.96,4.7 8.96,9.89 0,4.08 -2.83,5.81 -5.22,5.81 -2.17,0 -4.02,-1.45 -4.96,-2.44 -0.59,1.99 -2.54,2.44 -3.59,2.44 -1.36,0 -2.19,-0.91 -2.75,-1.84 -0.7,-1.19 -1.25,-3.27 -1.25,-3.49 0,-0.45 0.49,-0.45 0.59,-0.45 0.49,0 0.52,0.11 0.77,1.05 0.52,2.03 1.19,3.76 2.55,3.76 0.9,0 1.14,-0.76 1.14,-1.7 0,-0.39 -0.06,-0.84 -0.11,-1.05 z"
           id="path7508" /><path
           style="fill:#000000;stroke-width:0"
           inkscape:connector-curvature="0"
           d="m 560.68,422.5 h 0.14 0.14 0.14 l 0.08,0.01 h 0.07 l 0.07,0.01 0.07,0.01 0.07,0.01 0.07,0.01 0.07,0.01 0.07,0.02 0.06,0.02 0.06,0.02 0.07,0.02 0.05,0.03 0.06,0.03 0.05,0.04 0.05,0.03 0.05,0.05 0.04,0.04 0.04,0.05 0.02,0.03 0.02,0.03 0.01,0.02 0.02,0.03 0.01,0.03 0.02,0.04 0.01,0.03 0.01,0.04 0.01,0.03 0.01,0.04 0.01,0.04 v 0.04 l 0.01,0.04 v 0.04 0.04 0.05 c 0,1 -0.95,1 -1.64,1 h -29.84 c -0.7,0 -1.64,0 -1.64,-1 0,-0.98 0.94,-0.98 1.69,-0.98 z"
           id="path7510" /><path
           style="fill:#000000;stroke-width:0"
           inkscape:connector-curvature="0"
           d="m 560.72,412.82 h 0.07 0.06 l 0.14,0.01 h 0.14 0.07 l 0.07,0.01 0.07,0.01 h 0.07 l 0.07,0.01 0.06,0.02 0.07,0.01 0.07,0.02 0.06,0.02 0.06,0.02 0.06,0.02 0.06,0.03 0.05,0.03 0.06,0.04 0.04,0.04 0.05,0.04 0.04,0.05 0.02,0.02 0.02,0.03 0.02,0.02 0.02,0.03 0.02,0.03 0.01,0.03 0.01,0.03 0.02,0.03 0.01,0.04 0.01,0.03 0.01,0.04 0.01,0.04 0.01,0.04 v 0.04 l 0.01,0.04 v 0.04 0.05 0.04 c 0,1 -0.95,1 -1.68,1 h -29.75 c -0.75,0 -1.69,0 -1.69,-1 0,-1 0.94,-1 1.64,-1 z"
           id="path7512" /><path
           style="fill:#000000;stroke-width:0"
           inkscape:connector-curvature="0"
           d="m 610.64,435 0.1,0.37 0.05,0.19 0.06,0.18 0.06,0.17 0.07,0.17 0.07,0.17 0.08,0.16 0.08,0.16 0.09,0.16 0.1,0.15 0.11,0.14 0.11,0.14 0.12,0.14 0.14,0.12 0.14,0.13 0.15,0.12 0.16,0.11 0.18,0.11 0.18,0.1 0.2,0.09 0.21,0.09 0.22,0.08 0.24,0.08 0.25,0.07 0.27,0.06 0.28,0.06 0.3,0.04 0.31,0.05 0.33,0.03 0.35,0.03 0.18,0.01 h 0.18 c 0.25,0 0.84,0.05 0.84,1 0,0.05 0,0.55 -0.63,0.55 -1.65,0 -3.4,-0.16 -5.08,-0.16 -1.71,0 -3.55,0.16 -5.19,0.16 -0.3,0 -0.89,0 -0.89,-1 0,-0.55 0.5,-0.55 0.89,-0.55 2.84,-0.04 3.39,-1.09 3.39,-2.18 0,-0.16 -0.11,-0.91 -0.16,-1.05 l -4.48,-17.8 c -1.69,-6.67 -7.42,-11 -12.41,-11 -3.37,0 -6.07,2.19 -6.07,6.47 0,0.11 0,1.7 0.54,3.89 l 4.84,19.38 c 0.44,1.79 0.55,2.29 4.19,2.29 1.28,0 1.69,0 1.69,1 0,0.55 -0.55,0.55 -0.7,0.55 -1.39,0 -4.99,-0.16 -6.38,-0.16 -1.43,0 -4.98,0.16 -6.42,0.16 -0.41,0 -0.95,0 -0.95,-1 0,-0.55 0.45,-0.55 1.4,-0.55 0.1,0 1.05,0 1.89,-0.09 0.9,-0.11 1.35,-0.16 1.35,-0.8 0,-0.31 -0.55,-2.39 -0.85,-3.54 l -1.1,-4.38 c -0.44,-1.95 -2.83,-11.36 -3.04,-12.31 -0.34,-1.39 -0.34,-2.14 -0.34,-2.89 0,-6.08 4.53,-9.56 9.76,-9.56 6.27,0 12.46,5.62 14.1,12.2 z"
           id="path7514" /><path
           style="fill:#000000;stroke-width:0"
           inkscape:connector-curvature="0"
           d="m 622.79,421.9 v 0.01 0 0 l 0.01,0.01 v 0 0.01 0.01 0 l 0.01,0.01 v 0.01 0.01 l 0.01,0.02 v 0.02 l 0.01,0.02 0.01,0.02 v 0.02 l 0.01,0.02 v 0.03 l 0.01,0.02 0.01,0.05 0.01,0.04 0.01,0.03 v 0.02 l 0.01,0.02 v 0.02 l 0.01,0.02 v 0.02 l 0.01,0.02 v 0.01 0.01 0.01 0 l 0.01,0.01 v 0 0.01 0 0.01 0 0 0.01 0 c 0,0.19 -0.14,0.5 -0.56,0.5 -0.69,0 -3.6,-0.28 -4.46,-0.36 -0.25,-0.03 -0.73,-0.06 -0.73,-0.8 0,-0.48 0.48,-0.48 0.87,-0.48 1.68,0 1.68,-0.25 1.68,-0.53 0,-0.24 -0.08,-0.46 -0.14,-0.77 l -4.33,-17.2 c -0.11,-0.36 -0.14,-0.74 -0.14,-1.08 0,-2.23 1.98,-3.31 3.65,-3.31 0.85,0 1.89,0.28 2.8,1.84 0.73,1.28 1.22,3.35 1.22,3.49 0,0.45 -0.45,0.45 -0.56,0.45 -0.49,0 -0.55,-0.2 -0.69,-0.84 -0.45,-1.74 -1.13,-3.97 -2.63,-3.97 -0.93,0 -1.17,0.87 -1.17,1.7 0,0.39 0.1,1.05 0.21,1.44 z"
           id="path7516" /><path
           style="fill:#000000;stroke-width:0"
           inkscape:connector-curvature="0"
           d="m 659.96,435 0.1,0.37 0.05,0.19 0.06,0.18 0.06,0.17 0.07,0.17 0.07,0.17 0.08,0.16 0.09,0.16 0.09,0.16 0.09,0.15 0.11,0.14 0.12,0.14 0.12,0.14 0.13,0.12 0.14,0.13 0.15,0.12 0.17,0.11 0.17,0.11 0.19,0.1 0.19,0.09 0.21,0.09 0.23,0.08 0.24,0.08 0.25,0.07 0.26,0.06 0.28,0.06 0.3,0.04 0.31,0.05 0.33,0.03 0.35,0.03 0.18,0.01 h 0.19 c 0.25,0 0.84,0.05 0.84,1 0,0.05 0,0.55 -0.64,0.55 -1.64,0 -3.39,-0.16 -5.08,-0.16 -1.7,0 -3.55,0.16 -5.19,0.16 -0.29,0 -0.89,0 -0.89,-1 0,-0.55 0.5,-0.55 0.89,-0.55 2.85,-0.04 3.39,-1.09 3.39,-2.18 0,-0.16 -0.11,-0.91 -0.15,-1.05 l -4.49,-17.8 c -1.68,-6.67 -7.42,-11 -12.4,-11 -3.38,0 -6.08,2.19 -6.08,6.47 0,0.11 0,1.7 0.55,3.89 l 4.84,19.38 c 0.44,1.79 0.55,2.29 4.19,2.29 1.28,0 1.68,0 1.68,1 0,0.55 -0.54,0.55 -0.7,0.55 -1.39,0 -4.98,-0.16 -6.37,-0.16 -1.44,0 -4.99,0.16 -6.43,0.16 -0.4,0 -0.95,0 -0.95,-1 0,-0.55 0.45,-0.55 1.41,-0.55 0.09,0 1.04,0 1.89,-0.09 0.89,-0.11 1.34,-0.16 1.34,-0.8 0,-0.31 -0.54,-2.39 -0.84,-3.54 l -1.11,-4.38 c -0.44,-1.95 -2.83,-11.36 -3.03,-12.31 -0.35,-1.39 -0.35,-2.14 -0.35,-2.89 0,-6.08 4.54,-9.56 9.77,-9.56 6.27,0 12.45,5.62 14.09,12.2 z"
           id="path7518" /><path
           style="fill:#000000;stroke-width:0"
           inkscape:connector-curvature="0"
           d="m 677.41,401.59 -0.02,-0.07 -0.02,-0.07 -0.02,-0.07 -0.01,-0.07 -0.02,-0.08 -0.02,-0.08 -0.04,-0.15 -0.04,-0.17 -0.04,-0.16 -0.04,-0.16 -0.02,-0.07 -0.02,-0.08 -0.02,-0.08 -0.02,-0.07 -0.01,-0.07 -0.02,-0.07 -0.02,-0.07 -0.01,-0.06 -0.01,-0.06 -0.02,-0.06 -0.01,-0.05 -0.01,-0.05 -0.01,-0.04 v -0.04 l -0.01,-0.04 v -0.03 l -0.01,-0.02 v -0.02 c 0,-0.77 0.63,-1.11 1.17,-1.11 0.64,0 1.19,0.45 1.36,0.76 0.19,0.32 0.46,1.43 0.64,2.16 0.18,0.66 0.55,2.27 0.77,3.14 0.2,0.77 0.41,1.53 0.59,2.33 0.38,1.5 0.38,1.56 1.08,2.65 1.11,1.71 2.86,3.69 5.56,3.69 1.96,0 2.07,-1.61 2.07,-2.44 0,-2.09 -1.5,-5.95 -2.07,-7.42 -0.37,-0.98 -0.51,-1.29 -0.51,-1.89 0,-1.84 1.53,-2.98 3.31,-2.98 3.49,0 5.02,4.79 5.02,5.33 0,0.45 -0.46,0.45 -0.57,0.45 -0.48,0 -0.51,-0.2 -0.65,-0.59 -0.8,-2.79 -2.3,-4.22 -3.69,-4.22 -0.73,0 -0.87,0.48 -0.87,1.22 0,0.79 0.17,1.25 0.79,2.82 0.42,1.08 1.85,4.77 1.85,6.72 0,0.56 0,2.03 -1.29,3.03 -0.59,0.46 -1.6,0.94 -3.25,0.94 -3.12,0 -5.04,-2.05 -6.15,-3.51 -0.28,2.96 -2.77,3.51 -4.53,3.51 -2.89,0 -4.85,-1.76 -5.89,-3.16 -0.25,2.4 -2.3,3.16 -3.74,3.16 -1.5,0 -2.29,-1.08 -2.75,-1.87 -0.76,-1.29 -1.25,-3.29 -1.25,-3.46 0,-0.45 0.49,-0.45 0.6,-0.45 0.48,0 0.51,0.11 0.76,1.05 0.52,2.06 1.19,3.76 2.55,3.76 0.9,0 1.14,-0.76 1.14,-1.7 0,-0.67 -0.31,-1.95 -0.56,-2.89 -0.24,-0.95 -0.58,-2.38 -0.77,-3.14 l -1.11,-4.47 c -0.14,-0.44 -0.34,-1.31 -0.34,-1.42 0,-0.77 0.62,-1.11 1.19,-1.11 0.62,0 1.17,0.45 1.35,0.76 0.18,0.32 0.46,1.43 0.63,2.16 0.17,0.66 0.55,2.27 0.77,3.14 0.2,0.77 0.42,1.53 0.59,2.33 0.37,1.44 0.45,1.7 1.45,3.14 0.99,1.39 2.63,3.2 5.24,3.2 2.01,0 2.04,-1.78 2.04,-2.44 0,-0.87 -0.09,-1.32 -0.59,-3.28 z"
           id="path7520" /><path
           style="fill:#000000;stroke-width:0"
           inkscape:connector-curvature="0"
           d="m 731.84,435 0.1,0.37 0.05,0.19 0.06,0.18 0.06,0.17 0.07,0.17 0.07,0.17 0.08,0.16 0.08,0.16 0.1,0.16 0.09,0.15 0.11,0.14 0.11,0.14 0.13,0.14 0.13,0.12 0.14,0.13 0.15,0.12 0.17,0.11 0.17,0.11 0.18,0.1 0.2,0.09 0.21,0.09 0.23,0.08 0.23,0.08 0.26,0.07 0.26,0.06 0.28,0.06 0.3,0.04 0.31,0.05 0.33,0.03 0.35,0.03 0.18,0.01 h 0.19 c 0.25,0 0.84,0.05 0.84,1 0,0.05 0,0.55 -0.64,0.55 -1.64,0 -3.39,-0.16 -5.08,-0.16 -1.7,0 -3.55,0.16 -5.19,0.16 -0.3,0 -0.89,0 -0.89,-1 0,-0.55 0.5,-0.55 0.89,-0.55 2.85,-0.04 3.39,-1.09 3.39,-2.18 0,-0.16 -0.11,-0.91 -0.15,-1.05 l -4.49,-17.8 c -1.68,-6.67 -7.42,-11 -12.4,-11 -3.38,0 -6.08,2.19 -6.08,6.47 0,0.11 0,1.7 0.55,3.89 l 4.84,19.38 c 0.44,1.79 0.54,2.29 4.19,2.29 1.28,0 1.68,0 1.68,1 0,0.55 -0.54,0.55 -0.7,0.55 -1.39,0 -4.98,-0.16 -6.38,-0.16 -1.43,0 -4.98,0.16 -6.42,0.16 -0.4,0 -0.95,0 -0.95,-1 0,-0.55 0.45,-0.55 1.41,-0.55 0.09,0 1.04,0 1.89,-0.09 0.89,-0.11 1.34,-0.16 1.34,-0.8 0,-0.31 -0.55,-2.39 -0.84,-3.54 l -1.11,-4.38 c -0.44,-1.95 -2.83,-11.36 -3.03,-12.31 -0.35,-1.39 -0.35,-2.14 -0.35,-2.89 0,-6.08 4.53,-9.56 9.77,-9.56 6.26,0 12.45,5.62 14.09,12.2 z"
           id="path7522" /><path
           style="fill:#000000;stroke-width:0"
           inkscape:connector-curvature="0"
           d="m 749.1,438.76 0.1,-0.01 0.09,-0.01 0.09,-0.01 0.1,-0.02 0.09,-0.01 0.09,-0.01 0.1,-0.02 0.05,-0.01 0.06,-0.01 0.05,-0.01 0.06,-0.01 0.05,-0.01 0.06,-0.01 0.07,-0.02 0.06,-0.01 0.07,-0.02 0.07,-0.01 0.07,-0.02 0.08,-0.02 0.07,-0.01 0.08,-0.02 0.09,-0.02 0.09,-0.03 0.09,-0.02 0.1,-0.02 c 1.11,-0.32 1.95,-0.53 2.61,-0.53 1.36,0 1.5,1.04 1.5,1.35 0,0.29 -0.14,1.36 -1.5,1.36 -0.66,0 -1.5,-0.2 -2.61,-0.51 -1.05,-0.28 -1.41,-0.31 -1.93,-0.39 0.07,1.22 0.32,2.69 0.49,3.76 0.14,0.71 0.45,2.47 0.45,3.69 0,1.05 -0.48,1.61 -1.36,1.61 -0.73,0 -1.36,-0.39 -1.36,-1.61 0,-1.14 0.28,-2.89 0.5,-4.08 0.07,-0.37 0.38,-2.08 0.46,-3.37 -0.53,0.08 -0.88,0.11 -1.93,0.39 -1.12,0.31 -1.95,0.51 -2.6,0.51 -1.36,0 -1.5,-1.04 -1.5,-1.36 0,-0.28 0.14,-1.35 1.5,-1.35 0.65,0 1.48,0.21 2.6,0.53 1.05,0.26 1.4,0.31 1.93,0.37 -0.08,-0.87 -0.33,-1.98 -0.5,-2.72 -0.46,-2.15 -0.46,-2.4 -0.46,-4.22 0,-6.71 0.68,-13.86 0.77,-14.56 0.05,-0.31 0.11,-0.51 0.59,-0.51 0.54,0 0.57,0.2 0.63,0.68 0,0.05 0.28,3.08 0.42,5.21 0.17,3.06 0.31,6.12 0.31,9.18 0,1.82 0,2.07 -0.48,4.3 -0.06,0.38 -0.39,1.77 -0.46,2.64 z"
           id="path7524" /><path
           style="fill:#000000;stroke-width:0"
           inkscape:connector-curvature="0"
           d="m 738.41,396.03 -0.01,-0.05 -0.02,-0.04 -0.01,-0.05 -0.01,-0.05 -0.02,-0.05 -0.01,-0.05 -0.02,-0.05 -0.01,-0.05 -0.03,-0.11 -0.03,-0.12 -0.03,-0.11 -0.02,-0.11 -0.02,-0.05 -0.01,-0.05 -0.01,-0.05 -0.01,-0.05 -0.01,-0.05 -0.01,-0.04 -0.01,-0.05 -0.01,-0.04 -0.01,-0.04 v -0.03 l -0.01,-0.03 v -0.03 l -0.01,-0.02 v -0.03 0 -0.01 -0.01 0 c 0,-0.77 0.62,-1.11 1.18,-1.11 0.63,0 1.18,0.45 1.36,0.76 0.17,0.31 0.46,1.42 0.63,2.16 0.17,0.65 0.54,2.26 0.76,3.14 0.21,0.76 0.43,1.53 0.6,2.33 0.37,1.43 0.45,1.7 1.45,3.14 0.98,1.39 2.63,3.2 5.23,3.2 2.02,0 2.05,-1.78 2.05,-2.44 0,-2.09 -1.48,-5.95 -2.05,-7.42 -0.38,-0.98 -0.53,-1.3 -0.53,-1.89 0,-1.84 1.55,-2.98 3.32,-2.98 3.48,0 5.01,4.79 5.01,5.32 0,0.46 -0.45,0.46 -0.55,0.46 -0.5,0 -0.53,-0.21 -0.67,-0.6 -0.79,-2.78 -2.29,-4.22 -3.68,-4.22 -0.74,0 -0.88,0.49 -0.88,1.22 0,0.8 0.17,1.25 0.8,2.83 0.42,1.08 1.86,4.77 1.86,6.72 0,3.39 -2.69,3.97 -4.53,3.97 -2.9,0 -4.85,-1.77 -5.9,-3.16 -0.25,2.39 -2.29,3.16 -3.73,3.16 -1.5,0 -2.3,-1.08 -2.75,-1.88 -0.77,-1.28 -1.25,-3.28 -1.25,-3.45 0,-0.45 0.48,-0.45 0.6,-0.45 0.48,0 0.51,0.11 0.76,1.04 0.52,2.07 1.19,3.77 2.55,3.77 0.9,0 1.14,-0.77 1.14,-1.7 0,-0.67 -0.32,-1.96 -0.57,-2.89 -0.23,-0.96 -0.57,-2.38 -0.76,-3.14 z"
           id="path7526" /><path
           style="fill:#000000;stroke-width:0"
           inkscape:connector-curvature="0"
           d="m 792.92,435 0.1,0.37 0.06,0.19 0.05,0.18 0.07,0.17 0.06,0.17 0.07,0.17 0.08,0.16 0.09,0.16 0.09,0.16 0.1,0.15 0.1,0.14 0.12,0.14 0.12,0.14 0.13,0.12 0.14,0.13 0.16,0.12 0.16,0.11 0.17,0.11 0.19,0.1 0.2,0.09 0.21,0.09 0.22,0.08 0.24,0.08 0.25,0.07 0.26,0.06 0.29,0.06 0.29,0.04 0.32,0.05 0.33,0.03 0.34,0.03 0.18,0.01 h 0.19 c 0.25,0 0.84,0.05 0.84,1 0,0.05 0,0.55 -0.64,0.55 -1.64,0 -3.39,-0.16 -5.08,-0.16 -1.7,0 -3.54,0.16 -5.19,0.16 -0.29,0 -0.89,0 -0.89,-1 0,-0.55 0.5,-0.55 0.89,-0.55 2.85,-0.04 3.4,-1.09 3.4,-2.18 0,-0.16 -0.11,-0.91 -0.16,-1.05 l -4.49,-17.8 c -1.68,-6.67 -7.42,-11 -12.4,-11 -3.38,0 -6.08,2.19 -6.08,6.47 0,0.11 0,1.7 0.55,3.89 l 4.84,19.38 c 0.44,1.79 0.55,2.29 4.19,2.29 1.28,0 1.69,0 1.69,1 0,0.55 -0.55,0.55 -0.71,0.55 -1.39,0 -4.98,-0.16 -6.37,-0.16 -1.44,0 -4.99,0.16 -6.42,0.16 -0.41,0 -0.96,0 -0.96,-1 0,-0.55 0.46,-0.55 1.41,-0.55 0.09,0 1.05,0 1.89,-0.09 0.89,-0.11 1.34,-0.16 1.34,-0.8 0,-0.31 -0.54,-2.39 -0.84,-3.54 L 768,429.87 c -0.44,-1.95 -2.83,-11.36 -3.03,-12.31 -0.34,-1.39 -0.34,-2.14 -0.34,-2.89 0,-6.08 4.53,-9.56 9.76,-9.56 6.27,0 12.45,5.62 14.09,12.2 z"
           id="path7528" /><path
           style="fill:#000000;stroke-width:0"
           inkscape:connector-curvature="0"
           d="m 810.19,438.76 0.09,-0.01 0.1,-0.01 0.09,-0.01 0.09,-0.02 0.09,-0.01 0.1,-0.01 0.1,-0.02 0.05,-0.01 0.05,-0.01 0.05,-0.01 0.06,-0.01 0.06,-0.01 0.06,-0.01 0.06,-0.02 0.06,-0.01 0.07,-0.02 0.07,-0.01 0.07,-0.02 0.08,-0.02 0.08,-0.01 0.08,-0.02 0.08,-0.02 0.09,-0.03 0.09,-0.02 0.1,-0.02 c 1.11,-0.32 1.95,-0.53 2.61,-0.53 1.36,0 1.5,1.04 1.5,1.35 0,0.29 -0.14,1.36 -1.5,1.36 -0.66,0 -1.5,-0.2 -2.61,-0.51 -1.05,-0.28 -1.41,-0.31 -1.92,-0.39 0.06,1.22 0.31,2.69 0.48,3.76 0.14,0.71 0.46,2.47 0.46,3.69 0,1.05 -0.49,1.61 -1.36,1.61 -0.74,0 -1.36,-0.39 -1.36,-1.61 0,-1.14 0.28,-2.89 0.5,-4.08 0.06,-0.37 0.37,-2.08 0.45,-3.37 -0.53,0.08 -0.88,0.11 -1.92,0.39 -1.13,0.31 -1.96,0.51 -2.61,0.51 -1.36,0 -1.5,-1.04 -1.5,-1.36 0,-0.28 0.14,-1.35 1.5,-1.35 0.65,0 1.48,0.21 2.61,0.53 1.04,0.26 1.39,0.31 1.92,0.37 -0.08,-0.87 -0.33,-1.98 -0.5,-2.72 -0.45,-2.15 -0.45,-2.4 -0.45,-4.22 0,-6.71 0.67,-13.86 0.76,-14.56 0.05,-0.31 0.11,-0.51 0.6,-0.51 0.53,0 0.56,0.2 0.62,0.68 0,0.05 0.28,3.08 0.42,5.21 0.17,3.06 0.32,6.12 0.32,9.18 0,1.82 0,2.07 -0.49,4.3 -0.06,0.38 -0.39,1.77 -0.45,2.64 z"
           id="path7530" /><path
           style="fill:#000000;stroke-width:0"
           inkscape:connector-curvature="0"
           d="m 812.97,408.2 0.01,0.03 0.01,0.02 v 0.03 l 0.01,0.03 v 0.04 l 0.01,0.03 0.01,0.03 v 0.04 l 0.01,0.03 v 0.03 l 0.01,0.04 v 0.03 l 0.01,0.04 v 0.03 0.03 0.03 c 0,0.22 -0.14,0.49 -0.45,0.49 -0.36,0 -1.82,-1.17 -2.52,-2.3 -0.34,0.71 -1.5,2.3 -3.73,2.3 v -0.97 c 2.43,0 3.11,-2.69 3.11,-3.03 0,-0.17 -0.08,-0.39 -0.11,-0.52 l -1.64,-6.45 c -0.18,-0.59 -0.18,-0.66 -0.63,-1.22 -1.36,-1.61 -3,-2.55 -4.36,-2.55 -1.28,0 -2.53,0.91 -2.53,3.38 0,1.86 1,5.69 1.81,7.08 1.6,2.79 3.38,3.31 4.35,3.31 v 0.97 c -4.45,0 -8.99,-4.91 -8.99,-9.92 0,-3.38 2.27,-5.78 5.27,-5.78 1.98,0 3.62,1.25 4.39,1.9 -0.03,-0.09 -1.12,-4.48 -1.27,-5.08 -0.48,-1.92 -0.51,-1.95 -2.67,-1.98 -0.42,0 -0.9,0 -0.9,-0.77 0,-0.21 0.17,-0.5 0.51,-0.5 1.16,0 2.44,0.14 3.63,0.14 1.18,0 2.65,-0.14 3.73,-0.14 0.31,0 0.69,0.11 0.69,0.77 0,0.5 -0.49,0.5 -0.91,0.5 -0.76,0 -1.7,0 -1.7,0.41 0,0.11 0,0.18 0.17,0.76 z"
           id="path7532" /></g>    </g>
    <g
       id="g7772"
       transform="matrix(0.31845826,0,0,0.31845826,58.323197,113.63973)">
      <g
         word-spacing="normal"
         letter-spacing="normal"
         font-size-adjust="none"
         font-stretch="normal"
         font-weight="normal"
         font-variant="normal"
         font-style="normal"
         stroke-miterlimit="10.433"
         xml:space="preserve"
         transform="matrix(0.3,0,0,-0.3,-52.5,222.75)"
         id="g7770"
         style="font-style:normal;font-variant:normal;font-weight:normal;font-stretch:normal;letter-spacing:normal;word-spacing:normal;text-anchor:start;fill:none;fill-opacity:1;fill-rule:evenodd;stroke:#000000;stroke-linecap:butt;stroke-linejoin:miter;stroke-miterlimit:10.43299961;stroke-dasharray:none;stroke-dashoffset:0;stroke-opacity:1"><path
           id="path7766"
           d="m 487.16,435 0.1,0.37 0.05,0.19 0.06,0.18 0.06,0.17 0.07,0.17 0.07,0.17 0.08,0.16 0.08,0.16 0.1,0.16 0.09,0.15 0.11,0.14 0.11,0.14 0.13,0.14 0.13,0.12 0.14,0.13 0.15,0.12 0.17,0.11 0.17,0.11 0.19,0.1 0.19,0.09 0.21,0.09 0.23,0.08 0.23,0.08 0.26,0.07 0.26,0.06 0.28,0.06 0.3,0.04 0.31,0.05 0.33,0.03 0.35,0.03 0.18,0.01 h 0.19 c 0.25,0 0.84,0.05 0.84,1 0,0.05 0,0.55 -0.64,0.55 -1.64,0 -3.39,-0.16 -5.08,-0.16 -1.7,0 -3.55,0.16 -5.19,0.16 -0.29,0 -0.89,0 -0.89,-1 0,-0.55 0.5,-0.55 0.89,-0.55 2.85,-0.04 3.39,-1.09 3.39,-2.18 0,-0.16 -0.11,-0.91 -0.15,-1.05 l -4.49,-17.8 c -1.68,-6.67 -7.42,-11 -12.4,-11 -3.38,0 -6.08,2.19 -6.08,6.47 0,0.11 0,1.7 0.55,3.89 l 4.84,19.38 c 0.44,1.79 0.55,2.29 4.19,2.29 1.28,0 1.68,0 1.68,1 0,0.55 -0.54,0.55 -0.7,0.55 -1.39,0 -4.98,-0.16 -6.37,-0.16 -1.44,0 -4.99,0.16 -6.43,0.16 -0.4,0 -0.95,0 -0.95,-1 0,-0.55 0.45,-0.55 1.41,-0.55 0.09,0 1.04,0 1.89,-0.09 0.89,-0.11 1.34,-0.16 1.34,-0.8 0,-0.31 -0.55,-2.39 -0.84,-3.54 l -1.11,-4.38 c -0.44,-1.95 -2.83,-11.36 -3.03,-12.31 -0.35,-1.39 -0.35,-2.14 -0.35,-2.89 0,-6.08 4.53,-9.56 9.77,-9.56 6.26,0 12.45,5.62 14.09,12.2 z"
           inkscape:connector-curvature="0"
           style="fill:#000000;stroke-width:0" /><path
           id="path7768"
           d="m 504.61,401.59 -0.02,-0.07 -0.02,-0.07 -0.02,-0.07 -0.01,-0.07 -0.02,-0.08 -0.02,-0.08 -0.04,-0.15 -0.04,-0.17 -0.04,-0.16 -0.04,-0.16 -0.02,-0.07 -0.02,-0.08 -0.02,-0.08 -0.02,-0.07 -0.01,-0.07 -0.02,-0.07 -0.02,-0.07 -0.01,-0.06 -0.01,-0.06 -0.02,-0.06 -0.01,-0.05 -0.01,-0.05 -0.01,-0.04 -0.01,-0.04 v -0.04 l -0.01,-0.03 v -0.02 -0.02 c 0,-0.77 0.63,-1.11 1.17,-1.11 0.64,0 1.19,0.45 1.36,0.76 0.19,0.32 0.46,1.43 0.64,2.16 0.17,0.66 0.55,2.27 0.77,3.14 0.2,0.77 0.4,1.53 0.59,2.33 0.38,1.5 0.38,1.56 1.08,2.65 1.11,1.71 2.86,3.69 5.56,3.69 1.96,0 2.06,-1.61 2.06,-2.44 0,-2.09 -1.5,-5.95 -2.06,-7.42 -0.37,-0.98 -0.51,-1.29 -0.51,-1.89 0,-1.84 1.53,-2.98 3.31,-2.98 3.48,0 5.01,4.79 5.01,5.33 0,0.45 -0.45,0.45 -0.56,0.45 -0.48,0 -0.51,-0.2 -0.65,-0.59 -0.8,-2.79 -2.3,-4.22 -3.69,-4.22 -0.73,0 -0.88,0.48 -0.88,1.22 0,0.79 0.18,1.25 0.8,2.82 0.42,1.08 1.85,4.77 1.85,6.72 0,0.56 0,2.03 -1.29,3.03 -0.59,0.46 -1.61,0.94 -3.25,0.94 -3.12,0 -5.04,-2.05 -6.15,-3.51 -0.28,2.96 -2.77,3.51 -4.53,3.51 -2.89,0 -4.85,-1.76 -5.89,-3.16 -0.25,2.4 -2.3,3.16 -3.74,3.16 -1.5,0 -2.3,-1.08 -2.75,-1.87 -0.76,-1.29 -1.25,-3.29 -1.25,-3.46 0,-0.45 0.49,-0.45 0.59,-0.45 0.49,0 0.52,0.11 0.77,1.05 0.52,2.06 1.19,3.76 2.55,3.76 0.9,0 1.14,-0.76 1.14,-1.7 0,-0.67 -0.31,-1.95 -0.56,-2.89 -0.24,-0.95 -0.58,-2.38 -0.77,-3.14 l -1.11,-4.47 c -0.14,-0.44 -0.34,-1.31 -0.34,-1.42 0,-0.77 0.62,-1.11 1.18,-1.11 0.63,0 1.18,0.45 1.36,0.76 0.18,0.32 0.46,1.43 0.63,2.16 0.17,0.66 0.55,2.27 0.76,3.14 0.21,0.77 0.43,1.53 0.6,2.33 0.37,1.44 0.45,1.7 1.45,3.14 0.99,1.39 2.63,3.2 5.24,3.2 2.01,0 2.04,-1.78 2.04,-2.44 0,-0.87 -0.09,-1.32 -0.59,-3.28 z"
           inkscape:connector-curvature="0"
           style="fill:#000000;stroke-width:0" /></g>    </g>
    <g
       id="g8018"
       transform="matrix(0.29554249,0,0,0.29554249,50.345421,98.946886)">
      <g
         id="g8016"
         transform="matrix(0.3,0,0,-0.3,-73.525797,227.04559)"
         xml:space="preserve"
         stroke-miterlimit="10.433"
         font-style="normal"
         font-variant="normal"
         font-weight="normal"
         font-stretch="normal"
         font-size-adjust="none"
         letter-spacing="normal"
         word-spacing="normal"
         style="font-style:normal;font-variant:normal;font-weight:normal;font-stretch:normal;letter-spacing:normal;word-spacing:normal;text-anchor:start;fill:none;fill-opacity:1;fill-rule:evenodd;stroke:#000000;stroke-linecap:butt;stroke-linejoin:miter;stroke-miterlimit:10.43299961;stroke-dasharray:none;stroke-dashoffset:0;stroke-opacity:1"><path
           d="m 487.16,435 0.1,0.37 0.05,0.19 0.06,0.18 0.06,0.17 0.07,0.17 0.07,0.17 0.08,0.16 0.08,0.16 0.1,0.16 0.09,0.15 0.11,0.14 0.11,0.14 0.13,0.14 0.13,0.12 0.14,0.13 0.15,0.12 0.17,0.11 0.17,0.11 0.19,0.1 0.19,0.09 0.21,0.09 0.23,0.08 0.23,0.08 0.26,0.07 0.26,0.06 0.28,0.06 0.3,0.04 0.31,0.05 0.33,0.03 0.35,0.03 0.18,0.01 h 0.19 c 0.25,0 0.84,0.05 0.84,1 0,0.05 0,0.55 -0.64,0.55 -1.64,0 -3.39,-0.16 -5.08,-0.16 -1.7,0 -3.55,0.16 -5.19,0.16 -0.29,0 -0.89,0 -0.89,-1 0,-0.55 0.5,-0.55 0.89,-0.55 2.85,-0.04 3.39,-1.09 3.39,-2.18 0,-0.16 -0.11,-0.91 -0.15,-1.05 l -4.49,-17.8 c -1.68,-6.67 -7.42,-11 -12.4,-11 -3.38,0 -6.08,2.19 -6.08,6.47 0,0.11 0,1.7 0.55,3.89 l 4.84,19.38 c 0.44,1.79 0.55,2.29 4.19,2.29 1.28,0 1.68,0 1.68,1 0,0.55 -0.54,0.55 -0.7,0.55 -1.39,0 -4.98,-0.16 -6.37,-0.16 -1.44,0 -4.99,0.16 -6.43,0.16 -0.4,0 -0.95,0 -0.95,-1 0,-0.55 0.45,-0.55 1.41,-0.55 0.09,0 1.04,0 1.89,-0.09 0.89,-0.11 1.34,-0.16 1.34,-0.8 0,-0.31 -0.55,-2.39 -0.84,-3.54 l -1.11,-4.38 c -0.44,-1.95 -2.83,-11.36 -3.03,-12.31 -0.35,-1.39 -0.35,-2.14 -0.35,-2.89 0,-6.08 4.53,-9.56 9.77,-9.56 6.26,0 12.45,5.62 14.09,12.2 z"
           id="path8010"
           inkscape:connector-curvature="0"
           style="fill:#000000;stroke-width:0" /><path
           d="m 504.43,438.76 0.09,-0.01 0.09,-0.01 0.09,-0.01 0.1,-0.02 0.09,-0.01 0.09,-0.01 0.1,-0.02 0.05,-0.01 0.06,-0.01 0.05,-0.01 0.06,-0.01 0.06,-0.01 0.06,-0.01 0.06,-0.02 0.06,-0.01 0.07,-0.02 0.07,-0.01 0.07,-0.02 0.08,-0.02 0.07,-0.01 0.09,-0.02 0.08,-0.02 0.09,-0.03 0.09,-0.02 0.1,-0.02 c 1.11,-0.32 1.95,-0.53 2.61,-0.53 1.36,0 1.5,1.04 1.5,1.35 0,0.29 -0.14,1.36 -1.5,1.36 -0.66,0 -1.5,-0.2 -2.61,-0.51 -1.05,-0.28 -1.41,-0.31 -1.92,-0.39 0.06,1.22 0.31,2.69 0.48,3.76 0.14,0.71 0.45,2.47 0.45,3.69 0,1.05 -0.48,1.61 -1.36,1.61 -0.73,0 -1.36,-0.39 -1.36,-1.61 0,-1.14 0.29,-2.89 0.5,-4.08 0.07,-0.37 0.38,-2.08 0.46,-3.37 -0.53,0.08 -0.88,0.11 -1.92,0.39 -1.13,0.31 -1.96,0.51 -2.61,0.51 -1.36,0 -1.5,-1.04 -1.5,-1.36 0,-0.28 0.14,-1.35 1.5,-1.35 0.65,0 1.48,0.21 2.61,0.53 1.04,0.26 1.39,0.31 1.92,0.37 -0.08,-0.87 -0.33,-1.98 -0.5,-2.72 -0.46,-2.15 -0.46,-2.4 -0.46,-4.22 0,-6.71 0.68,-13.86 0.77,-14.56 0.05,-0.31 0.11,-0.51 0.59,-0.51 0.54,0 0.57,0.2 0.63,0.68 0,0.05 0.28,3.08 0.42,5.21 0.17,3.06 0.31,6.12 0.31,9.18 0,1.82 0,2.07 -0.48,4.3 -0.06,0.38 -0.39,1.77 -0.45,2.64 z"
           id="path8012"
           inkscape:connector-curvature="0"
           style="fill:#000000;stroke-width:0" /><path
           d="m 493.73,396.03 -0.01,-0.05 -0.02,-0.04 -0.01,-0.05 -0.01,-0.05 -0.02,-0.05 -0.01,-0.05 -0.02,-0.05 -0.01,-0.05 -0.03,-0.11 -0.03,-0.12 -0.03,-0.11 -0.02,-0.11 -0.02,-0.05 -0.01,-0.05 -0.01,-0.05 -0.01,-0.05 -0.01,-0.05 -0.01,-0.04 -0.01,-0.05 -0.01,-0.04 -0.01,-0.04 v -0.03 l -0.01,-0.03 v -0.03 l -0.01,-0.02 v -0.03 0 -0.01 -0.01 0 c 0,-0.77 0.62,-1.11 1.18,-1.11 0.63,0 1.18,0.45 1.36,0.76 0.18,0.31 0.46,1.42 0.63,2.16 0.17,0.65 0.55,2.26 0.76,3.14 0.21,0.76 0.43,1.53 0.6,2.33 0.37,1.43 0.45,1.7 1.45,3.14 0.99,1.39 2.63,3.2 5.24,3.2 2.01,0 2.04,-1.78 2.04,-2.44 0,-2.09 -1.48,-5.95 -2.04,-7.42 -0.4,-0.98 -0.54,-1.3 -0.54,-1.89 0,-1.84 1.55,-2.98 3.32,-2.98 3.48,0 5.01,4.79 5.01,5.32 0,0.46 -0.45,0.46 -0.54,0.46 -0.5,0 -0.54,-0.21 -0.68,-0.6 -0.79,-2.78 -2.29,-4.22 -3.68,-4.22 -0.74,0 -0.88,0.49 -0.88,1.22 0,0.8 0.17,1.25 0.8,2.83 0.42,1.08 1.86,4.77 1.86,6.72 0,3.39 -2.69,3.97 -4.53,3.97 -2.89,0 -4.85,-1.77 -5.89,-3.16 -0.25,2.39 -2.3,3.16 -3.74,3.16 -1.5,0 -2.3,-1.08 -2.75,-1.88 -0.76,-1.28 -1.25,-3.28 -1.25,-3.45 0,-0.45 0.49,-0.45 0.59,-0.45 0.49,0 0.52,0.11 0.77,1.04 0.52,2.07 1.19,3.77 2.55,3.77 0.9,0 1.14,-0.77 1.14,-1.7 0,-0.67 -0.31,-1.96 -0.56,-2.89 -0.24,-0.96 -0.58,-2.38 -0.77,-3.14 z"
           id="path8014"
           inkscape:connector-curvature="0"
           style="fill:#000000;stroke-width:0" /></g>    </g>
    <g
       id="g8274"
       transform="matrix(0.29427379,0,0,0.29427379,26.445845,116.21504)">
      <g
         word-spacing="normal"
         letter-spacing="normal"
         font-size-adjust="none"
         font-stretch="normal"
         font-weight="normal"
         font-variant="normal"
         font-style="normal"
         stroke-miterlimit="10.433"
         xml:space="preserve"
         transform="matrix(0.3,0,0,-0.3,-52.5,222.75)"
         id="g8272"
         style="font-style:normal;font-variant:normal;font-weight:normal;font-stretch:normal;letter-spacing:normal;word-spacing:normal;text-anchor:start;fill:none;fill-opacity:1;fill-rule:evenodd;stroke:#000000;stroke-linecap:butt;stroke-linejoin:miter;stroke-miterlimit:10.43299961;stroke-dasharray:none;stroke-dashoffset:0;stroke-opacity:1"><path
           id="path8266"
           d="m 487.16,435 0.1,0.37 0.05,0.19 0.06,0.18 0.06,0.17 0.07,0.17 0.07,0.17 0.08,0.16 0.08,0.16 0.1,0.16 0.09,0.15 0.11,0.14 0.11,0.14 0.13,0.14 0.13,0.12 0.14,0.13 0.15,0.12 0.17,0.11 0.17,0.11 0.19,0.1 0.19,0.09 0.21,0.09 0.23,0.08 0.23,0.08 0.26,0.07 0.26,0.06 0.28,0.06 0.3,0.04 0.31,0.05 0.33,0.03 0.35,0.03 0.18,0.01 h 0.19 c 0.25,0 0.84,0.05 0.84,1 0,0.05 0,0.55 -0.64,0.55 -1.64,0 -3.39,-0.16 -5.08,-0.16 -1.7,0 -3.55,0.16 -5.19,0.16 -0.29,0 -0.89,0 -0.89,-1 0,-0.55 0.5,-0.55 0.89,-0.55 2.85,-0.04 3.39,-1.09 3.39,-2.18 0,-0.16 -0.11,-0.91 -0.15,-1.05 l -4.49,-17.8 c -1.68,-6.67 -7.42,-11 -12.4,-11 -3.38,0 -6.08,2.19 -6.08,6.47 0,0.11 0,1.7 0.55,3.89 l 4.84,19.38 c 0.44,1.79 0.55,2.29 4.19,2.29 1.28,0 1.68,0 1.68,1 0,0.55 -0.54,0.55 -0.7,0.55 -1.39,0 -4.98,-0.16 -6.37,-0.16 -1.44,0 -4.99,0.16 -6.43,0.16 -0.4,0 -0.95,0 -0.95,-1 0,-0.55 0.45,-0.55 1.41,-0.55 0.09,0 1.04,0 1.89,-0.09 0.89,-0.11 1.34,-0.16 1.34,-0.8 0,-0.31 -0.55,-2.39 -0.84,-3.54 l -1.11,-4.38 c -0.44,-1.95 -2.83,-11.36 -3.03,-12.31 -0.35,-1.39 -0.35,-2.14 -0.35,-2.89 0,-6.08 4.53,-9.56 9.77,-9.56 6.26,0 12.45,5.62 14.09,12.2 z"
           inkscape:connector-curvature="0"
           style="fill:#000000;stroke-width:0" /><path
           id="path8268"
           d="m 504.43,438.76 0.09,-0.01 0.09,-0.01 0.09,-0.01 0.1,-0.02 0.09,-0.01 0.09,-0.01 0.1,-0.02 0.05,-0.01 0.06,-0.01 0.05,-0.01 0.06,-0.01 0.06,-0.01 0.06,-0.01 0.06,-0.02 0.06,-0.01 0.07,-0.02 0.07,-0.01 0.07,-0.02 0.08,-0.02 0.07,-0.01 0.09,-0.02 0.08,-0.02 0.09,-0.03 0.09,-0.02 0.1,-0.02 c 1.11,-0.32 1.95,-0.53 2.61,-0.53 1.36,0 1.5,1.04 1.5,1.35 0,0.29 -0.14,1.36 -1.5,1.36 -0.66,0 -1.5,-0.2 -2.61,-0.51 -1.05,-0.28 -1.41,-0.31 -1.92,-0.39 0.06,1.22 0.31,2.69 0.48,3.76 0.14,0.71 0.45,2.47 0.45,3.69 0,1.05 -0.48,1.61 -1.36,1.61 -0.73,0 -1.36,-0.39 -1.36,-1.61 0,-1.14 0.29,-2.89 0.5,-4.08 0.07,-0.37 0.38,-2.08 0.46,-3.37 -0.53,0.08 -0.88,0.11 -1.92,0.39 -1.13,0.31 -1.96,0.51 -2.61,0.51 -1.36,0 -1.5,-1.04 -1.5,-1.36 0,-0.28 0.14,-1.35 1.5,-1.35 0.65,0 1.48,0.21 2.61,0.53 1.04,0.26 1.39,0.31 1.92,0.37 -0.08,-0.87 -0.33,-1.98 -0.5,-2.72 -0.46,-2.15 -0.46,-2.4 -0.46,-4.22 0,-6.71 0.68,-13.86 0.77,-14.56 0.05,-0.31 0.11,-0.51 0.59,-0.51 0.54,0 0.57,0.2 0.63,0.68 0,0.05 0.28,3.08 0.42,5.21 0.17,3.06 0.31,6.12 0.31,9.18 0,1.82 0,2.07 -0.48,4.3 -0.06,0.38 -0.39,1.77 -0.45,2.64 z"
           inkscape:connector-curvature="0"
           style="fill:#000000;stroke-width:0" /><path
           id="path8270"
           d="m 507.21,408.2 0.01,0.03 0.01,0.02 v 0.03 l 0.01,0.03 0.01,0.04 v 0.03 l 0.01,0.03 0.01,0.04 v 0.03 l 0.01,0.03 v 0.04 l 0.01,0.03 v 0.04 0.03 0.03 0.03 c 0,0.22 -0.14,0.49 -0.45,0.49 -0.36,0 -1.81,-1.17 -2.52,-2.3 -0.34,0.71 -1.5,2.3 -3.73,2.3 v -0.97 c 2.44,0 3.11,-2.69 3.11,-3.03 0,-0.17 -0.08,-0.39 -0.11,-0.52 l -1.64,-6.45 c -0.17,-0.59 -0.17,-0.66 -0.63,-1.22 -1.36,-1.61 -3,-2.55 -4.36,-2.55 -1.28,0 -2.53,0.91 -2.53,3.38 0,1.86 1,5.69 1.82,7.08 1.59,2.79 3.37,3.31 4.34,3.31 v 0.97 c -4.45,0 -8.98,-4.91 -8.98,-9.92 0,-3.38 2.26,-5.78 5.26,-5.78 1.99,0 3.63,1.25 4.39,1.9 -0.03,-0.09 -1.12,-4.48 -1.26,-5.08 -0.49,-1.92 -0.52,-1.95 -2.68,-1.98 -0.42,0 -0.9,0 -0.9,-0.77 0,-0.21 0.17,-0.5 0.51,-0.5 1.16,0 2.44,0.14 3.63,0.14 1.19,0 2.65,-0.14 3.73,-0.14 0.32,0 0.69,0.11 0.69,0.77 0,0.5 -0.48,0.5 -0.91,0.5 -0.76,0 -1.7,0 -1.7,0.41 0,0.11 0,0.18 0.17,0.76 z"
           inkscape:connector-curvature="0"
           style="fill:#000000;stroke-width:0" /></g>    </g>
  </g>
</svg>
